<svg id="Layer_1" data-name="Layer 1" xmlns="http://www.w3.org/2000/svg" viewBox="0 0 35 48.93"><defs><style>.cls-1{fill:#c6073a;}.cls-2{fill:#ecf0f3;}</style></defs><title>addevsoft-logo</title><path class="cls-1" d="M42.73,14.71A2.74,2.74,0,0,0,41,14a6.69,6.69,0,0,0-1.79-4.47,6.55,6.55,0,0,0-3.41-1.89H33.32V6.09H30.37a4.54,4.54,0,0,0-.8-3.78,4.36,4.36,0,0,0-6.89,0,4.56,4.56,0,0,0-.79,3.78H18.94V7.68H16.42A6.6,6.6,0,0,0,13,9.57,6.74,6.74,0,0,0,11.21,14a2.74,2.74,0,0,0-1.69.67,2.66,2.66,0,0,0-.89,1.69v5.53A3.48,3.48,0,0,0,10,24a3.12,3.12,0,0,0,1,.43,6.66,6.66,0,0,0,2.06,4.14,6.54,6.54,0,0,0,3.38,1.63A17.27,17.27,0,0,0,10.62,40a7.75,7.75,0,0,0,6.16,1.36,6.21,6.21,0,0,0,1.56-.66,12.37,12.37,0,0,0,7.79,5,12.36,12.36,0,0,0,3.81-1.39,12.62,12.62,0,0,0,4-3.58,6.29,6.29,0,0,0,1.55.66A7.76,7.76,0,0,0,41.64,40a17.27,17.27,0,0,0-5.83-9.77,6.54,6.54,0,0,0,3.38-1.63,6.63,6.63,0,0,0,2.05-4.14,3.16,3.16,0,0,0,1-.43,3.53,3.53,0,0,0,1.39-2.09V16.4A2.75,2.75,0,0,0,42.73,14.71Z" transform="translate(-8.63 -0.62)"/><path class="cls-2" d="M41.42,16.46a1.27,1.27,0,0,0-.53-.43l-1.7,0v-2.5A4.66,4.66,0,0,0,35.46,10H31.15V8.24H27.3V7H25V8.24H21.16V10H16.85a4.73,4.73,0,0,0-2.36,1.16,4.65,4.65,0,0,0-1.37,2.36v2.5l-1.71,0a1.41,1.41,0,0,0-.53.43,1.17,1.17,0,0,0-.21.57v4.65a1,1,0,0,0,.28.52,1.08,1.08,0,0,0,.53.29H13.1v2.13a4.92,4.92,0,0,0,1.16,2.22,4.64,4.64,0,0,0,1.86,1.22H36.19a4.71,4.71,0,0,0,3-3.44V22.49h1.63a1.17,1.17,0,0,0,.53-.29,1.11,1.11,0,0,0,.28-.52V17A1.21,1.21,0,0,0,41.42,16.46Z" transform="translate(-8.63 -0.62)"/><rect class="cls-1" x="7.62" y="12.4" width="19.82" height="12.1" rx="3.69"/><path class="cls-2" d="M36.2,34a14.63,14.63,0,0,0-5.55-4.21H21.48a14.59,14.59,0,0,0-8.2,9.2,5.28,5.28,0,0,0,3,.34,5.43,5.43,0,0,0,2.88-1.57,9.08,9.08,0,0,0,1.62,2.67,9.51,9.51,0,0,0,5.24,2.95,9.51,9.51,0,0,0,5.24-2.95,9.08,9.08,0,0,0,1.62-2.67,5.43,5.43,0,0,0,2.88,1.57A5.32,5.32,0,0,0,38.85,39,14.87,14.87,0,0,0,36.2,34Z" transform="translate(-8.63 -0.62)"/><circle class="cls-2" cx="14.04" cy="17.81" r="3"/><circle class="cls-2" cx="22.01" cy="17.83" r="1.96"/><ellipse class="cls-1" cx="17.45" cy="47.43" rx="7" ry="1.5"/><circle class="cls-2" cx="17.54" cy="4.37" r="2.45"/></svg>